<?xml version="1.0" encoding="utf-8"?>
<!-- Generator: Adobe Illustrator 27.5.0, SVG Export Plug-In . SVG Version: 6.00 Build 0)  -->
<svg version="1.2" baseProfile="tiny-ps" viewBox="0 0 256 256" fill="none" xmlns="http://www.w3.org/2000/svg">
<title>Soramitsu Group</title>
<rect width="256" height="256" fill="white"/>
<path d="M173.936 79.6641H168.683C165.002 79.6641 162.039 76.7011 162.039 73.0198H146.641H141.388C137.707 73.0198 134.744 70.0569 134.744 66.3756C134.744 62.6943 137.707 59.7314 141.388 59.7314H146.641H191.399C177.527 39.7538 154.407 26.6 128.189 26.6C91.8705 26.6 61.4327 51.8301 53.3968 85.6798H112.207H117.46C121.141 85.6798 124.104 88.6428 124.104 92.324C124.104 96.0053 121.141 98.9683 117.46 98.9683H112.207H96.8088C96.8088 102.65 93.8458 105.612 90.1645 105.612H84.912H51.3766C51.4664 108.935 51.7806 112.167 52.2745 115.354H52.3642C75.7537 119.619 102.376 122.044 130.614 122.044C156.921 122.044 181.792 119.934 204.014 116.207C204.733 112.077 205.092 107.812 205.092 103.502C205.092 95.1972 203.745 87.2062 201.321 79.6641H173.936Z" fill="#EE1122"/>
<path d="M109.469 136.589C101.702 136.634 74.0478 139.462 63.5427 140.091V146.959H107.897C108.75 141.931 108.93 139.238 109.469 136.589Z" fill="#EE1122"/>
<path d="M151.175 147.004H191.758V140.136C181.253 139.552 155.35 136.589 147.538 136.544C148.077 137.801 149.963 143.368 151.175 147.004Z" fill="#EE1122"/>
<path d="M123.161 125.904C123.161 125.994 123.116 126.084 123.116 126.129C122.982 128.912 122.847 131.696 122.712 134.524C122.667 135.242 122.667 135.242 121.949 135.332C120.198 135.556 118.403 135.826 116.652 136.05C116.427 136.095 116.248 136.275 116.248 136.454C116.203 137.128 116.113 137.801 116.023 138.474C115.933 139.193 115.799 139.866 115.619 140.674C118.627 140.091 121.545 139.507 124.463 138.879C124.508 138.923 124.508 138.923 124.508 139.013C123.924 139.327 123.251 139.687 122.667 140.046C122.488 140.136 122.308 140.36 122.308 140.54C122.084 142.874 121.814 145.253 121.59 147.543C121.365 149.922 123.027 152.122 125.72 152.077C129.671 152.032 133.981 151.314 137.976 151.314C138.111 151.314 138.245 151.314 138.38 151.314C139.592 151.179 139.862 150.73 140.086 150.416C140.804 149.473 140.311 148.441 139.727 147.094C139.098 145.568 138.739 145.298 137.931 143.772C137.617 143.188 137.303 142.56 136.944 141.976C136.809 142.156 136.809 142.335 136.809 142.47C136.719 143.592 136.674 144.76 136.584 145.882C136.495 146.825 135.911 147.408 135.013 147.543C132.813 147.857 130.299 148.396 128.1 148.351C126.753 148.306 126.483 147.723 126.304 146.645C126.259 146.421 126.259 146.151 126.259 145.927C126.394 143.637 126.483 141.348 126.618 139.058C126.663 138.744 126.753 138.609 127.067 138.564C130.748 138.026 134.474 137.397 138.156 136.858C139.368 136.679 140.535 136.589 141.747 136.454C141.208 134.928 140.67 133.446 140.131 131.875C135.821 132.863 131.511 133.85 127.112 134.569C127.561 131.606 128.189 128.777 128.997 125.904H123.161Z" fill="#EE1122"/>
<path d="M176.136 163.57V156.342H80.1982V163.57C93.352 174.075 110.007 180.36 128.144 180.36C146.281 180.315 162.982 174.075 176.136 163.57Z" fill="#EE1122"/>
<path d="M144.441 222.47C143.947 222.111 143.274 221.932 142.51 221.932C141.702 221.932 141.074 222.111 140.58 222.47C140.086 222.829 139.682 223.323 139.458 223.907C139.233 224.49 139.098 225.164 139.098 225.927V226.511C139.098 227.049 139.143 227.588 139.278 228.037C139.413 228.486 139.592 228.935 139.862 229.294C140.131 229.653 140.49 229.967 140.939 230.192C141.388 230.416 141.927 230.506 142.51 230.506C143.139 230.506 143.678 230.371 144.127 230.192C144.531 229.967 144.935 229.698 145.204 229.294C145.473 228.935 145.698 228.486 145.788 228.037C145.922 227.543 145.967 227.049 145.967 226.511V225.927C145.967 225.164 145.832 224.49 145.608 223.907C145.339 223.323 144.935 222.829 144.441 222.47ZM144.082 228.576C143.767 229.07 143.184 229.294 142.465 229.294C141.747 229.294 141.208 229.07 140.894 228.576C140.58 228.082 140.4 227.319 140.4 226.241C140.4 225.164 140.58 224.356 140.894 223.862C141.208 223.368 141.792 223.144 142.465 223.144C143.184 223.144 143.722 223.368 144.037 223.862C144.351 224.356 144.531 225.119 144.531 226.241C144.575 227.319 144.396 228.082 144.082 228.576Z" fill="#EE1122"/>
<path d="M158.043 225.702C157.639 225.478 157.146 225.388 156.607 225.388L158.986 223.727V222.156H153.823V223.278H157.55L157.684 223.503L154.766 225.568L155.395 226.69C155.529 226.6 155.664 226.555 155.844 226.466C156.023 226.421 156.203 226.376 156.427 226.376C156.921 226.376 157.325 226.511 157.639 226.78C157.954 227.049 158.043 227.453 158.043 227.902C158.043 228.216 157.999 228.486 157.819 228.71C157.684 228.935 157.505 229.114 157.235 229.204C157.011 229.339 156.697 229.384 156.338 229.384C155.844 229.384 155.44 229.249 155.125 228.98C154.811 228.71 154.676 228.351 154.676 227.902H153.419C153.419 228.396 153.554 228.8 153.734 229.204C153.958 229.608 154.317 229.922 154.721 230.147C155.17 230.371 155.709 230.506 156.293 230.506C156.921 230.506 157.46 230.371 157.864 230.147C158.268 229.922 158.627 229.608 158.852 229.204C159.076 228.8 159.166 228.396 159.166 227.947V227.812C159.166 227.364 159.031 226.915 158.852 226.555C158.807 226.196 158.492 225.927 158.043 225.702Z" fill="#EE1122"/>
<path d="M124.733 225.343C124.328 225.119 123.835 225.029 123.251 225.029C122.757 225.029 122.308 225.119 121.904 225.298C121.5 225.478 121.186 225.792 121.006 226.151C121.006 226.196 120.961 226.196 120.961 226.196C120.961 225.568 121.051 225.029 121.186 224.58C121.321 224.131 121.59 223.772 121.994 223.548C122.398 223.323 122.892 223.188 123.52 223.188C123.835 223.188 124.104 223.189 124.328 223.233C124.553 223.278 124.822 223.278 125.047 223.278V222.156C124.822 222.111 124.553 222.111 124.328 222.111C124.104 222.111 123.835 222.066 123.565 222.066C122.308 222.066 121.365 222.38 120.692 223.099C120.019 223.817 119.704 224.805 119.704 226.107V226.6C119.704 227.094 119.749 227.633 119.884 228.082C120.019 228.531 120.198 228.98 120.423 229.339C120.647 229.698 121.006 229.967 121.41 230.192C121.814 230.416 122.308 230.506 122.937 230.506C123.565 230.506 124.104 230.371 124.553 230.147C125.002 229.923 125.361 229.563 125.585 229.159C125.81 228.755 125.9 228.261 125.9 227.723C125.9 227.184 125.81 226.735 125.585 226.286C125.451 225.927 125.137 225.568 124.733 225.343ZM124.508 228.621C124.373 228.845 124.194 229.07 123.924 229.204C123.655 229.339 123.341 229.429 122.937 229.429C122.533 229.429 122.174 229.384 121.949 229.204C121.68 229.07 121.5 228.845 121.365 228.621C121.231 228.396 121.186 228.082 121.186 227.768C121.186 227.408 121.276 227.049 121.41 226.825C121.545 226.6 121.814 226.421 122.084 226.241C122.353 226.107 122.667 226.062 123.027 226.062C123.386 226.062 123.7 226.107 123.924 226.286C124.149 226.421 124.328 226.6 124.508 226.87C124.643 227.094 124.688 227.408 124.688 227.768C124.688 228.082 124.643 228.351 124.508 228.621Z" fill="#EE1122"/>
<path d="M131.197 226.6H126.887V227.768H131.197V226.6Z" fill="#EE1122"/>
<path d="M133.711 228.8C133.711 228.576 133.756 228.396 133.891 228.262C134.025 228.127 134.205 227.992 134.474 227.857L135.911 227.184C136.495 226.915 136.988 226.6 137.348 226.152C137.662 225.747 137.841 225.254 137.841 224.625V224.49C137.841 224.042 137.752 223.593 137.527 223.233C137.303 222.829 137.033 222.515 136.584 222.291C136.18 222.066 135.642 221.932 135.013 221.932C134.385 221.932 133.846 222.066 133.442 222.291C133.038 222.515 132.724 222.829 132.499 223.278C132.275 223.682 132.185 224.131 132.185 224.625H133.487C133.487 224.131 133.621 223.772 133.891 223.548C134.16 223.278 134.519 223.144 135.013 223.144C135.507 223.144 135.866 223.278 136.135 223.548C136.405 223.817 136.539 224.176 136.539 224.625C136.539 225.029 136.45 225.343 136.225 225.613C136.001 225.837 135.731 226.062 135.372 226.196L133.936 226.87C133.532 227.049 133.217 227.229 132.948 227.409C132.724 227.588 132.544 227.813 132.454 228.082C132.364 228.306 132.319 228.621 132.319 228.98V230.416H137.886V229.249H133.621V228.845H133.711V228.8Z" fill="#EE1122"/>
<path d="M115.036 223.323H116.741V230.327H118.088V222.156H115.036V223.323Z" fill="#EE1122"/>
<path d="M148.481 228.8C148.481 228.576 148.526 228.396 148.661 228.262C148.795 228.127 148.975 227.992 149.244 227.857L150.681 227.184C151.265 226.915 151.758 226.6 152.118 226.152C152.432 225.747 152.611 225.254 152.611 224.625V224.49C152.611 224.042 152.522 223.593 152.297 223.233C152.073 222.829 151.803 222.515 151.354 222.291C150.95 222.066 150.412 221.932 149.783 221.932C149.155 221.932 148.616 222.066 148.212 222.291C147.808 222.515 147.494 222.829 147.269 223.278C147.045 223.682 146.955 224.131 146.955 224.625H148.257C148.257 224.131 148.391 223.772 148.661 223.548C148.93 223.278 149.289 223.144 149.783 223.144C150.277 223.144 150.636 223.278 150.905 223.548C151.175 223.817 151.309 224.176 151.309 224.625C151.309 225.029 151.22 225.343 150.995 225.613C150.771 225.837 150.501 226.062 150.142 226.196L148.706 226.87C148.302 227.049 147.987 227.229 147.718 227.409C147.494 227.588 147.314 227.813 147.224 228.082C147.134 228.306 147.089 228.621 147.089 228.98V230.416H152.656V229.249H148.391V228.845H148.481V228.8Z" fill="#EE1122"/>
<path d="M112.611 222.47C112.117 222.111 111.444 221.932 110.681 221.932C109.873 221.932 109.244 222.111 108.75 222.47C108.257 222.829 107.853 223.323 107.628 223.907C107.404 224.49 107.269 225.164 107.269 225.927V226.511C107.269 227.049 107.314 227.588 107.449 228.037C107.583 228.531 107.763 228.935 108.032 229.294C108.302 229.653 108.661 229.967 109.11 230.192C109.559 230.416 110.097 230.506 110.681 230.506C111.309 230.506 111.848 230.371 112.297 230.192C112.701 229.967 113.105 229.698 113.374 229.294C113.644 228.935 113.868 228.486 113.958 228.037C114.093 227.543 114.138 227.049 114.138 226.511V225.927C114.138 225.164 114.003 224.49 113.779 223.907C113.509 223.323 113.105 222.829 112.611 222.47ZM112.252 228.576C111.938 229.07 111.354 229.294 110.636 229.294C109.918 229.294 109.379 229.07 109.065 228.576C108.75 228.082 108.571 227.319 108.571 226.241C108.571 225.164 108.75 224.356 109.065 223.862C109.379 223.368 109.963 223.144 110.636 223.144C111.354 223.144 111.893 223.368 112.207 223.862C112.522 224.356 112.701 225.119 112.701 226.241C112.746 227.319 112.611 228.082 112.252 228.576Z" fill="#EE1122"/>
<path d="M101.882 228.8C101.882 228.576 101.927 228.396 102.061 228.262C102.196 228.127 102.376 227.992 102.645 227.857L104.081 227.184C104.665 226.915 105.159 226.6 105.518 226.152C105.832 225.747 106.012 225.254 106.012 224.625V224.49C106.012 224.042 105.922 223.593 105.698 223.233C105.473 222.829 105.204 222.515 104.755 222.291C104.351 222.066 103.812 221.932 103.184 221.932C102.555 221.932 102.016 222.066 101.612 222.291C101.208 222.515 100.894 222.829 100.67 223.278C100.445 223.682 100.355 224.131 100.355 224.625H101.657C101.657 224.131 101.792 223.772 102.061 223.548C102.331 223.278 102.69 223.144 103.184 223.144C103.677 223.144 104.037 223.278 104.306 223.548C104.575 223.817 104.71 224.176 104.71 224.625C104.71 225.029 104.62 225.343 104.396 225.613C104.171 225.837 103.902 226.062 103.543 226.196L102.106 226.87C101.702 227.049 101.388 227.229 101.119 227.409C100.894 227.588 100.714 227.813 100.625 228.082C100.535 228.306 100.49 228.621 100.49 228.98V230.416H106.057V229.249H101.792V228.845H101.882V228.8Z" fill="#EE1122"/>
<path d="M205.047 229.922C207.965 230.012 210.973 230.327 214.071 230.91L214.25 229.339C211.152 228.8 208.145 228.486 205.137 228.351L205.047 229.922Z" fill="#EE1122"/>
<path d="M220.311 221.617L218.784 221.932C219.144 223.233 219.503 224.58 219.862 226.017L221.388 225.703C221.029 224.176 220.67 222.829 220.311 221.617Z" fill="#EE1122"/>
<path d="M223.363 225.074C223.139 225.972 222.78 226.735 222.286 227.364C221.792 227.947 221.119 228.441 220.401 228.755C219.592 229.07 218.605 229.294 217.393 229.474L217.707 230.91C219.548 230.686 221.029 230.282 222.106 229.653C223.184 229.025 223.992 228.037 224.531 226.825C225.025 225.568 225.339 223.907 225.384 221.842L223.768 221.752C223.723 223.054 223.588 224.176 223.363 225.074Z" fill="#EE1122"/>
<path d="M217.078 222.021L215.597 222.335C215.911 223.458 216.27 224.76 216.629 226.286L218.156 225.972C217.752 224.445 217.438 223.099 217.078 222.021Z" fill="#EE1122"/>
<path d="M194.452 226.062H202.084C201.86 227.184 201.231 228.037 200.243 228.576C199.256 229.114 197.864 229.474 196.113 229.563L196.338 231C198.897 230.865 200.737 230.282 201.949 229.294C203.161 228.306 203.79 226.825 203.79 224.939V224.67H194.452V226.062Z" fill="#EE1122"/>
<path d="M186.955 225.747C186.371 224.356 185.698 223.009 185.069 221.617L183.588 222.246C184.306 223.817 184.935 225.164 185.473 226.376L186.955 225.747Z" fill="#EE1122"/>
<path d="M191.085 224.894C190.861 225.792 190.502 226.511 189.963 227.184C189.469 227.768 188.796 228.261 188.077 228.576C187.314 228.89 186.371 229.159 185.159 229.294L185.473 230.731C187.314 230.506 188.796 230.057 189.873 229.384C190.95 228.755 191.759 227.768 192.252 226.556C192.746 225.298 193.06 223.637 193.15 221.572L191.534 221.483C191.444 222.874 191.31 223.997 191.085 224.894Z" fill="#EE1122"/>
<path d="M213.846 222.111C211.152 221.752 208.414 221.527 205.631 221.393L205.586 222.919C208.234 223.009 210.928 223.233 213.711 223.637L213.846 222.111Z" fill="#EE1122"/>
<path d="M212.948 227.094L213.173 225.523C210.704 225.119 208.369 224.85 206.259 224.76L206.124 226.331C208.324 226.421 210.614 226.69 212.948 227.094Z" fill="#EE1122"/>
<path d="M203.117 221.527H195.35V222.964H203.117V221.527Z" fill="#EE1122"/>
<path d="M150.95 216.859V194.053H145.428L139.413 208.149H138.874L132.858 194.053H127.426V216.859H131.107V198.632L136.899 212.19H141.164L146.955 198.542V216.859H150.95Z" fill="#EE1122"/>
<path d="M160.962 194.053H156.921V216.859H160.962V194.053Z" fill="#EE1122"/>
<path d="M164.733 197.599H171.422V216.859H175.462V197.599H182.106V194.053H164.688V197.599H164.733Z" fill="#EE1122"/>
<path d="M115.619 194.053H108.975L101.074 216.859H105.114L107.224 210.573H117.415L119.615 216.859H123.745L115.619 194.053ZM108.346 207.162L111.624 197.509H112.791L116.158 207.162H108.346Z" fill="#EE1122"/>
<path d="M221.388 194.053V207.97C221.388 211.471 219.368 213.671 215.732 213.671C212.05 213.671 210.03 211.426 210.03 207.97V194.053H205.99V207.7C205.99 213.581 209.357 217.442 215.687 217.442C222.062 217.442 225.384 213.581 225.384 207.7V194.053H221.388Z" fill="#EE1122"/>
<path d="M52.6336 205.052V205.77C52.6336 210.843 56.4047 217.487 64.5753 217.487C72.7459 217.487 76.517 210.843 76.517 205.77V205.052C76.517 199.53 72.5214 193.379 64.5753 193.379C56.5843 193.379 52.6336 199.53 52.6336 205.052ZM64.5753 197.15C69.4238 197.15 72.4317 200.742 72.4317 205.456C72.4317 209.9 69.4238 213.761 64.5753 213.761C59.6819 213.761 56.674 209.9 56.674 205.456C56.674 200.742 59.7268 197.15 64.5753 197.15Z" fill="#EE1122"/>
<path d="M41.6347 203.615L39.4798 203.435C37.1454 203.256 36.023 201.999 36.023 200.517C36.023 198.632 37.3698 196.971 40.2879 196.971C43.206 196.971 44.5977 198.766 44.5977 200.697H48.5483C48.5483 196.297 45.316 193.469 40.243 193.469C35.3047 193.424 32.0724 196.208 32.0724 200.472C32.0724 204.243 34.8109 206.668 39.0758 207.027L41.2307 207.206C44.1487 207.476 45.6302 208.553 45.6302 210.259C45.6302 212.279 43.9692 213.94 40.4675 213.94C36.6066 213.94 35.2149 211.965 35.2149 210.035H31.2194C31.2194 214.345 34.5415 217.487 40.4675 217.487C46.0343 217.487 49.6257 214.569 49.6257 210.304C49.6257 206.309 46.4383 204.019 41.6347 203.615Z" fill="#EE1122"/>
<path d="M97.976 201.774V201.28C97.976 196.297 94.5641 193.918 89.2218 193.918H81.0961V216.903H85.1365V209.092H89.2667H89.4911L95.1028 216.903H99.8615L93.5765 208.374C96.315 207.431 97.976 205.186 97.976 201.774ZM89.7156 205.725H85.0916V197.375H89.7156C92.2745 197.375 93.8907 199.081 93.8907 201.55C93.9356 204.019 92.2745 205.725 89.7156 205.725Z" fill="#EE1122"/>
<path d="M192.701 196.926C195.619 196.926 197.011 198.722 197.011 200.652H200.962C200.962 196.252 197.729 193.424 192.656 193.424C187.673 193.424 184.441 196.208 184.441 200.472C184.441 204.243 187.179 206.668 191.444 207.027L193.599 207.206C196.517 207.476 197.999 208.553 197.999 210.259C197.999 212.279 196.338 213.94 192.836 213.94C188.975 213.94 187.583 211.965 187.583 210.035H183.633C183.633 214.344 186.955 217.487 192.881 217.487C198.448 217.487 202.039 214.569 202.039 210.304C202.039 206.353 198.852 204.109 194.048 203.66L191.893 203.48C189.559 203.301 188.436 202.044 188.436 200.562C188.436 198.587 189.828 196.926 192.701 196.926Z" fill="#EE1122"/>
<path d="M55.9557 222.156L53.3519 230.327H55.4619L56.0455 228.441H59.3227L59.9063 230.327H62.0612L59.3676 222.156H55.9557ZM56.5393 226.735L57.4372 223.817H57.8412L58.7391 226.735H56.5393Z" fill="#EE1122"/>
<path d="M49.8053 227.049H52.7683V225.343H49.8053V223.862H52.9478V222.156H49.8053H49.5808H47.7851V230.327H49.5808H49.8053H52.9927V228.621H49.8053V227.049Z" fill="#EE1122"/>
<path d="M31.2194 223.862V225.209H32.8805V223.862H35.0354L35.17 224.041L32.5213 230.327H34.7211L37.6392 223.278V222.156H31.2194V223.862Z" fill="#EE1122"/>
<path d="M43.8345 225.702H43.5651L42.0387 222.156H39.8839L42.2183 227.229H42.6224V230.327H44.6426V227.229H45.0466L47.1566 222.156H45.1364L43.8345 225.702Z" fill="#EE1122"/>
<path d="M75.3497 225.703C74.8559 225.478 74.3621 225.388 73.7335 225.299L73.2397 225.254C72.8806 225.209 72.6561 225.119 72.5214 224.984C72.3867 224.85 72.297 224.67 72.297 224.446C72.297 224.311 72.3418 224.131 72.4316 224.041C72.5214 223.907 72.6112 223.817 72.7459 223.727C72.8806 223.682 73.0601 223.593 73.3295 223.593C73.554 223.593 73.7784 223.637 73.9131 223.727C74.0927 223.817 74.2274 223.952 74.3172 224.086C74.4069 224.221 74.4518 224.401 74.4518 224.58H76.472C76.472 224.041 76.3374 223.593 76.1129 223.144C75.8884 222.74 75.5293 222.425 75.0355 222.201C74.5865 221.976 74.0029 221.887 73.3295 221.887C72.7459 221.887 72.1623 221.976 71.7133 222.201C71.2644 222.425 70.9053 222.695 70.6359 223.099C70.4114 223.503 70.2767 223.952 70.2767 224.446C70.2767 225.209 70.5012 225.792 71.0399 226.241C71.5338 226.69 72.2072 226.96 73.0601 227.049L73.554 227.094C74.0478 227.139 74.362 227.229 74.5865 227.319C74.811 227.453 74.9008 227.633 74.9008 227.857C74.9008 228.037 74.8559 228.172 74.7661 228.351C74.6763 228.486 74.4967 228.576 74.2723 228.666C74.0478 228.71 73.8233 228.8 73.5091 228.8C73.1948 228.8 72.9255 228.755 72.701 228.666C72.4765 228.576 72.3418 228.441 72.2072 228.306C72.0725 228.172 72.0725 227.992 72.0725 227.768H70.0523C70.0523 228.306 70.187 228.755 70.4563 229.204C70.7257 229.608 71.1297 229.923 71.6235 230.192C72.1174 230.416 72.7908 230.551 73.5091 230.551C74.2274 230.551 74.811 230.416 75.3048 230.237C75.7986 230.012 76.2027 229.743 76.472 229.339C76.7414 228.935 76.8761 228.486 76.8761 227.947C76.8761 227.408 76.7414 226.96 76.472 226.6C76.2027 226.151 75.8435 225.927 75.3497 225.703Z" fill="#EE1122"/>
<path d="M69.0197 226.6C69.2891 226.196 69.4238 225.703 69.4238 225.074V224.894C69.4238 224.311 69.2891 223.772 69.0197 223.368C68.7504 222.964 68.3463 222.65 67.8525 222.425C67.3587 222.201 66.7302 222.111 66.0119 222.111H64.7549H64.261H62.7346V230.327H64.8446V227.812H66.0119L67.6729 230.327H70.0523L68.0321 227.498C68.4361 227.274 68.7953 226.96 69.0197 226.6ZM67.224 225.658C67.1342 225.837 66.9995 225.972 66.82 226.062C66.6404 226.151 66.4159 226.196 66.1914 226.196H64.7549V223.817H66.1914C66.4159 223.817 66.6404 223.862 66.82 223.952C66.9995 224.041 67.1342 224.176 67.224 224.356C67.3138 224.535 67.3587 224.76 67.3587 224.984C67.3587 225.298 67.3138 225.478 67.224 225.658Z" fill="#EE1122"/>
</svg>
